<?xml version="1.0" encoding="UTF-8" standalone="no"?>
<!-- Created with Inkscape (http://www.inkscape.org/) -->

<svg
   width="1080"
   height="1080"
   viewBox="0 0 1080 1080"
   version="1.1"
   id="svg1"
   sodipodi:docname="echohomemade-white.svg"
   inkscape:version="1.4 (e7c3feb1, 2024-10-09)"
   inkscape:export-filename="echohomemade.jpg"
   inkscape:export-xdpi="96"
   inkscape:export-ydpi="96"
   xmlns:inkscape="http://www.inkscape.org/namespaces/inkscape"
   xmlns:sodipodi="http://sodipodi.sourceforge.net/DTD/sodipodi-0.dtd"
   xmlns="http://www.w3.org/2000/svg"
   xmlns:svg="http://www.w3.org/2000/svg">
  <sodipodi:namedview
     id="namedview1"
     pagecolor="#ffffff"
     bordercolor="#000000"
     borderopacity="0.25"
     inkscape:showpageshadow="2"
     inkscape:pageopacity="0.0"
     inkscape:pagecheckerboard="0"
     inkscape:deskcolor="#d1d1d1"
     inkscape:document-units="px"
     inkscape:zoom="0.74538706"
     inkscape:cx="534.62157"
     inkscape:cy="543.34187"
     inkscape:window-width="1808"
     inkscape:window-height="933"
     inkscape:window-x="0"
     inkscape:window-y="25"
     inkscape:window-maximized="0"
     inkscape:current-layer="layer1" />
  <defs
     id="defs1">
    <inkscape:path-effect
       effect="fillet_chamfer"
       id="path-effect12"
       is_visible="true"
       lpeversion="1"
       nodesatellites_param="F,0,0,1,0,0,0,1 @ F,0,0,1,0,0,0,1 @ F,0,0,1,0,0,0,1 @ F,0,0,1,0,0,0,1 @ F,0,0,1,0,0,0,1 @ F,0,0,1,0,0,0,1 @ F,0,0,1,0,0,0,1 @ F,0,0,1,0,0,0,1 @ F,0,0,1,0,0,0,1 | F,0,0,1,0,0,0,1 @ F,0,0,1,0,0,0,1 @ F,0,0,1,0,0,0,1 @ F,0,0,1,0,0,0,1 @ F,0,0,1,0,0,0,1 @ F,0,0,1,0,10.597854,0,1 @ F,0,0,1,0,0,0,1 @ F,0,0,1,0,0,0,1 @ F,0,0,1,0,0,0,1 @ F,0,0,1,0,0,0,1 @ F,0,0,1,0,0,0,1 @ F,0,0,1,0,0,0,1 @ F,0,0,1,0,0,0,1 @ F,0,0,1,0,0,0,1 @ F,0,0,1,0,0,0,1"
       radius="0"
       unit="px"
       method="auto"
       mode="F"
       chamfer_steps="1"
       flexible="false"
       use_knot_distance="true"
       apply_no_radius="true"
       apply_with_radius="true"
       only_selected="false"
       hide_knots="false" />
  </defs>
  <g
     inkscape:label="Layer 1"
     inkscape:groupmode="layer"
     id="layer1">
    <path
       id="path1"
       d="M 540 120.91602 C 309.02008 120.91602 120.91602 309.02008 120.91602 540 C 120.91602 651.13262 165.07948 757.75526 243.66211 836.33789 C 322.24474 914.92052 428.86738 959.08398 540 959.08398 C 651.13262 959.08398 757.75526 914.92052 836.33789 836.33789 C 879.19836 793.47742 911.72803 742.23914 932.5293 686.51367 L 868.81836 622.80273 C 853.98441 681.71497 823.45904 736.08003 779.76953 779.76953 C 716.16808 843.37099 629.94604 879.08398 540 879.08398 C 450.05396 879.08398 363.83192 843.37099 300.23047 779.76953 C 236.62901 716.16808 200.91602 629.94604 200.91602 540 C 200.91602 352.25528 352.25528 200.91602 540 200.91602 C 621.44924 200.91602 699.78508 230.28414 761.0957 283.04297 L 814.61328 223.58984 C 738.65022 157.66345 641.2331 120.91602 540 120.91602 z "
       style="fill:#ffffff;fill-opacity:1" />
    <path
       id="path1-9"
       style="color:#000000;font-style:normal;font-variant:normal;font-weight:normal;font-stretch:normal;font-size:medium;line-height:normal;font-family:sans-serif;font-variant-ligatures:normal;font-variant-position:normal;font-variant-caps:normal;font-variant-numeric:normal;font-variant-alternates:normal;font-variant-east-asian:normal;font-feature-settings:normal;font-variation-settings:normal;text-indent:0;text-align:start;text-decoration-line:none;text-decoration-style:solid;text-decoration-color:#000000;letter-spacing:normal;word-spacing:normal;text-transform:none;writing-mode:lr-tb;direction:ltr;text-orientation:mixed;dominant-baseline:auto;baseline-shift:baseline;text-anchor:start;white-space:normal;shape-padding:0;shape-margin:0;inline-size:0;clip-rule:nonzero;display:inline;overflow:visible;visibility:visible;isolation:auto;mix-blend-mode:normal;color-interpolation:sRGB;color-interpolation-filters:linearRGB;solid-color:#000000;solid-opacity:1;vector-effect:none;fill:#ffffff;fill-opacity:1;fill-rule:nonzero;stroke:none;stroke-linecap:butt;stroke-linejoin:miter;stroke-miterlimit:4;stroke-dasharray:none;stroke-dashoffset:0;stroke-opacity:1;-inkscape-stroke:none;color-rendering:auto;image-rendering:auto;shape-rendering:auto;text-rendering:auto;enable-background:accumulate;stop-color:#000000;stop-opacity:1"
       d="m 540,120.91602 c -230.9799,0 -419.08398,188.10406 -419.08398,419.08398 0,100.15155 35.96811,196.56731 100.57031,272.17188 -6.5979,-27.18615 -8.27255,-57.59007 -0.71485,-89.45704 2.9981,-12.64156 7.42779,-24.967 13.11329,-36.9082 C 212.39327,640.68491 200.91602,590.94446 200.91602,540 200.91602,352.25528 352.2553,200.91602 540,200.91602 c 64,0 126.06648,18.16459 179.48828,51.50781 l 49.72461,-63.17969 C 701.56099,145.04164 622.028,120.91602 540,120.91602 Z m 392.7168,284.70117 c -0.42167,-0.013 -0.83588,0.0439 -1.23633,0.16992 -2.11825,0.67373 -3.66161,3.21349 -4.05078,6.66601 h -0.0879 c -0.68752,6.07872 -1.54999,12.19576 -2.78125,18.38086 -6.18348,31.06105 -19.41163,61.72989 -39.44479,90.04634 -3.3802,4.77783 -6.29349,8.52593 -6.29349,8.52593 0.1102,3.52873 0.26171,7.05232 0.26171,10.59375 0,89.94604 -35.71295,176.16808 -99.31445,239.76953 C 716.16813,843.37099 629.946,879.08398 540,879.08398 c -40.4657,0 -80.15498,-7.28716 -117.39258,-21.03125 l -45.51172,68.00586 c 51.0813,21.5541 106.3981,33.02539 162.9043,33.02539 111.1326,0 217.75519,-44.16346 296.33789,-122.74609 C 914.92049,757.75526 959.08398,651.13262 959.08398,540 c 0,-44.47806 -7.23755,-88.17471 -20.78125,-129.69141 -1.41737,-2.85985 -3.50957,-4.617 -5.58593,-4.6914 z"
       inkscape:path-effect="#path-effect12"
       inkscape:original-d="m 540,120.91602 c -230.9799,0 -419.08398,188.10406 -419.08398,419.08398 0,100.15155 35.96811,196.56731 100.57031,272.17188 -6.5979,-27.18615 -8.27255,-57.59007 -0.71485,-89.45704 2.9981,-12.64156 7.42779,-24.967 13.11329,-36.9082 C 212.39327,640.68491 200.91602,590.94446 200.91602,540 200.91602,352.25528 352.2553,200.91602 540,200.91602 c 64,0 126.06648,18.16459 179.48828,51.50781 l 49.72461,-63.17969 C 701.56099,145.04164 622.028,120.91602 540,120.91602 Z m 392.7168,284.70117 a 10.358477,6.1906298 80.846042 0 0 -1.23633,0.16992 10.358477,6.1906298 80.846042 0 0 -4.05078,6.66601 h -0.0879 c -0.68752,6.07872 -1.54999,12.19576 -2.78125,18.38086 -6.8095,34.20568 -22.16228,67.93572 -45.73828,98.57227 0.1102,3.52873 0.26171,7.05232 0.26171,10.59375 0,89.94604 -35.71295,176.16808 -99.31445,239.76953 C 716.16813,843.37099 629.946,879.08398 540,879.08398 c -40.4657,0 -80.15498,-7.28716 -117.39258,-21.03125 l -45.51172,68.00586 c 51.0813,21.5541 106.3981,33.02539 162.9043,33.02539 111.1326,0 217.75519,-44.16346 296.33789,-122.74609 C 914.92049,757.75526 959.08398,651.13262 959.08398,540 c 0,-44.47806 -7.23755,-88.17471 -20.78125,-129.69141 a 10.358477,6.1906298 80.846042 0 0 -5.58593,-4.6914 z" />
    <path
       style="fill:none;fill-opacity:1;stroke:#ffffff;stroke-width:80;stroke-dasharray:none;stroke-opacity:1"
       d="M 358.56182,872.84362 C 301.49326,834.65102 197.86762,656.94381 571.17406,591.0121 944.4805,525.08039 848.0387,300.14024 780.83062,247.24532"
       id="path7"
       sodipodi:nodetypes="czc" />
  </g>
</svg>
